<svg width="30" height="30" viewBox="0 0 30 30" fill="none" xmlns="http://www.w3.org/2000/svg">
<path d="M30.0002 15.001C30.0002 6.71674 23.2845 0.00100607 15.0002 0.00100643C6.71594 0.00100679 0.000212605 6.71674 0.000212967 15.001C0.000213329 23.2853 6.71594 30.001 15.0002 30.001C23.2845 30.001 30.0002 23.2853 30.0002 15.001Z" fill="#CCCCCC"/>
<path d="M18.5458 7.36385V10.0002H17.0912C16.6366 10.0002 16.3639 10.0912 16.273 10.3639C16.1821 10.5457 16.1821 10.8184 16.1821 11.1821V12.3639H18.6367L18.3639 15.0003H16.1821V22.6368H13.0002V15.0003H11.4547V12.3639H13.0002V10.8184C13.0002 9.18205 13.5457 8.18204 14.6366 7.72749C15.1821 7.54567 15.6366 7.45476 16.0912 7.45476H18.5458V7.36385Z" fill="white"/>
</svg>
