<svg width="31" height="30" viewBox="0 0 31 30" fill="none" xmlns="http://www.w3.org/2000/svg">
<path d="M30.8 15C30.8 23.2727 24.0727 30 15.8 30C7.52728 30 0.800003 23.2727 0.800003 15C0.800003 6.72727 7.52728 0 15.8 0C24.0727 0 30.8 6.72727 30.8 15Z" fill="#CCCCCC"/>
<path d="M19.4364 23.2727H12.1636C9.52728 23.2727 7.43637 21.1818 7.43637 18.5454V11.4545C7.43637 8.81817 9.52728 6.72726 12.1636 6.72726H19.4364C22.0727 6.72726 24.1636 8.81817 24.1636 11.4545V18.5454C24.1636 21.1818 22.0727 23.2727 19.4364 23.2727ZM12.1636 8.27272C10.3455 8.27272 8.98182 9.72726 8.98182 11.4545V18.5454C8.98182 20.3636 10.4364 21.7273 12.1636 21.7273H19.4364C21.2545 21.7273 22.6182 20.2727 22.6182 18.5454V11.4545C22.6182 9.63636 21.1636 8.27272 19.4364 8.27272H12.1636V8.27272Z" fill="white"/>
<path d="M15.8 19.3636C13.4364 19.3636 11.4364 17.4545 11.4364 15C11.4364 12.6364 13.3455 10.6364 15.8 10.6364C18.1636 10.6364 20.1636 12.5455 20.1636 15C20.1636 17.3636 18.1636 19.3636 15.8 19.3636ZM15.8 12.1818C14.2546 12.1818 12.9818 13.4545 12.9818 15C12.9818 16.5455 14.2546 17.8182 15.8 17.8182C17.3455 17.8182 18.6182 16.5455 18.6182 15C18.6182 13.4545 17.3455 12.1818 15.8 12.1818Z" fill="white"/>
<path d="M21.3455 10.5455C21.3455 11.0909 20.8909 11.5455 20.3455 11.5455C19.8 11.5455 19.3455 11.0909 19.3455 10.5455C19.3455 10 19.8 9.54546 20.3455 9.54546C20.8909 9.54546 21.3455 10 21.3455 10.5455Z" fill="white"/>
</svg>
