<svg width="31" height="30" viewBox="0 0 31 30" fill="none" xmlns="http://www.w3.org/2000/svg">
<path d="M30.2 15C30.2 23.2727 23.4727 30 15.2 30C6.92727 30 0.199997 23.2727 0.199997 15C0.199997 6.72727 6.92727 0 15.2 0C23.4727 0 30.2 6.72727 30.2 15Z" fill="#CCCCCC"/>
<path d="M12.9273 14.5455H13.4727L13.2 14L12.9273 14.5455Z" fill="white"/>
<path d="M15.2 7.18181C10.4727 7.18181 6.65454 10.1818 6.65454 13.9091C6.65454 16.0909 8.01818 18.0909 10.1091 19.2727C10.5636 19.5454 10.2 20.1818 10.2 20.1818L8.47272 22.4545C8.47272 22.5454 8.47271 22.6364 8.56362 22.7273C8.65453 22.8182 8.65454 22.8182 8.74545 22.8182C8.83636 22.8182 8.83636 22.8182 8.92727 22.7273C8.92727 22.7273 10.0182 22.5454 11.4727 21.8182C12.6545 21.2727 13.7455 20.5454 13.7455 20.5454C14.2909 20.6364 14.7454 20.6364 15.2909 20.6364C20.0182 20.6364 23.8364 17.6364 23.8364 13.9091C23.7454 10.1818 19.9273 7.18181 15.2 7.18181ZM10.9273 15.9091C10.9273 16.2727 10.6545 16.5454 10.2909 16.5454C9.92727 16.5454 9.65454 16.2727 9.65454 15.9091V13.0909H8.83635C8.56363 13.0909 8.29091 12.8182 8.29091 12.5454C8.29091 12.2727 8.47272 12 8.83635 12H11.4727C11.7455 12 12.0182 12.2727 12.0182 12.5454C12.0182 12.8182 11.7455 13.0909 11.4727 13.0909H10.9273V15.9091ZM21.4727 16.4545C21.2909 16.4545 21.1091 16.3636 21.0182 16.1818L20.0182 14.7273L19.8364 14.9091V15.7273C19.8364 16.0909 19.5636 16.3636 19.2 16.3636C18.9273 16.3636 18.7454 16.1818 18.6545 16C18.5636 16.1818 18.3818 16.3636 18.2 16.3636H15.9273C15.7454 16.3636 15.4727 16.1818 15.4727 16C15.4727 16 15.4727 16 15.4727 16.0909C15.3818 16.2727 15.2 16.3636 14.9273 16.3636H14.8364H14.7454H14.6545C14.6545 16.3636 14.5636 16.3636 14.5636 16.2727C14.5636 16.2727 14.4727 16.2727 14.4727 16.1818C14.3818 16.0909 14.3818 16 14.2909 15.9091L14.1091 15.4545H12.6545L12.4727 15.9091C12.3818 16.1818 12.2 16.3636 11.9273 16.3636C11.5636 16.3636 11.2909 16.0909 11.2909 15.7273C11.2909 15.6364 11.2909 15.5454 11.2909 15.5454C11.2909 15.5454 11.2909 15.5454 11.2909 15.4545L12.7454 12.2727C12.8364 12 13.0182 11.8182 13.2909 11.8182C13.5636 11.8182 13.8364 12 13.8364 12.2727L15.2909 15.3636V12.4545V12.3636C15.2909 12 15.5636 11.7273 15.9273 11.7273C16.2909 11.7273 16.5636 12 16.5636 12.3636V12.4545V15.4545H18.1091C18.2909 15.4545 18.4727 15.5454 18.5636 15.7273V12.5454C18.5636 12.1818 18.8364 11.9091 19.2 11.9091C19.5636 11.9091 19.8364 12.1818 19.8364 12.5454V13.2727L21.0182 12.0909C21.1091 12 21.2909 11.9091 21.4727 11.9091C21.8364 11.9091 22.1091 12.1818 22.1091 12.5454C22.1091 12.7273 22.0182 12.8182 21.9273 12.9091L21.0182 13.8182L22.1091 15.3636C22.2 15.4545 22.2 15.6364 22.2 15.7273C22.0182 16.1818 21.7455 16.4545 21.4727 16.4545Z" fill="white"/>
<path d="M15.2909 15.8182C15.2909 15.7273 15.2909 15.7273 15.2909 15.7273C15.2909 15.7273 15.2909 15.7273 15.2909 15.6364C15.2909 15.6364 15.2909 15.6364 15.2909 15.5455V15.4545V15.5455C15.2909 15.6364 15.2909 15.6364 15.2909 15.7273C15.2909 15.8182 15.2909 15.9091 15.3818 16C15.2909 16 15.3818 16 15.2909 15.8182C15.3818 15.8182 15.3818 15.9091 15.2909 15.8182Z" fill="white"/>
<path d="M18.4727 15.7273V15.8182C18.4727 15.9091 18.4727 16 18.4727 16V15.9091C18.5636 15.9091 18.5636 15.8182 18.4727 15.7273Z" fill="white"/>
</svg>
