<svg width="31" height="31" viewBox="0 0 31 31" fill="none" xmlns="http://www.w3.org/2000/svg">
<path d="M30.5669 15.9575C30.5669 7.67323 23.8511 0.957506 15.5669 0.957506C7.28261 0.957506 0.566878 7.67323 0.566879 15.9575C0.566879 24.2418 7.28261 30.9575 15.5669 30.9575C23.8512 30.9575 30.5669 24.2418 30.5669 15.9575Z" fill="#CCCCCC"/>
<path d="M23.4156 13.0873C23.4156 11.7237 22.3247 10.7236 21.0519 10.7236C21.0519 10.7236 18.8701 10.5418 15.6882 10.5418C12.5063 10.5418 10.1426 10.7236 10.1426 10.7236C8.77896 10.7236 7.77894 11.8146 7.77894 13.0873C7.77894 13.0873 7.68803 14.451 7.68803 16.0874C7.68803 17.7238 7.77894 18.9965 7.77894 18.9965C7.77894 20.3602 8.86987 21.3602 10.1426 21.3602C10.1426 21.3602 13.2336 21.542 15.5064 21.542C17.7792 21.542 20.961 21.3602 20.961 21.3602C22.3247 21.3602 23.3247 20.2693 23.3247 18.9965C23.3247 18.9965 23.4156 17.7238 23.4156 16.0874C23.5065 14.451 23.4156 13.0873 23.4156 13.0873ZM14.2336 18.3602V13.5419L18.2337 15.9056L14.2336 18.3602Z" fill="white"/>
</svg>
