<svg width="66" height="50" viewBox="0 0 66 50" fill="none" xmlns="http://www.w3.org/2000/svg">
<path d="M54.0927 0V19.0586H39.1157C37.1006 5.75781 27.7161 0 14.313 0H0V50H14.9808C28.1144 50 37.5809 43.5664 39.2602 29.4648H54.0927V50H66V0H54.0927ZM13.5788 40.3359H11.9737V9.59766H13.5788C21.6043 9.59766 27.2904 12.8867 27.2904 24.7656C27.2904 36.6445 21.6043 40.3359 13.5788 40.3359Z" fill="black"/>
<path d="M39.1899 13.0234V0H27.2904V0.710938C29.7156 1.71094 31.844 3.04688 33.6639 4.70313C36.1047 6.92969 37.9519 9.71094 39.1899 13.0234Z" fill="black"/>
<path d="M27.2904 49.2891V50H39.1938V36.5625C37.003 42.5352 32.957 46.8594 27.2904 49.2891Z" fill="black"/>
</svg>
