<svg width="31" height="31" viewBox="0 0 31 31" fill="none" xmlns="http://www.w3.org/2000/svg">
<path d="M30.2927 15.9897C30.2927 7.70548 23.577 0.989748 15.2927 0.989748C7.00845 0.989748 0.292724 7.70548 0.292724 15.9897C0.292724 24.274 7.00845 30.9897 15.2927 30.9897C23.577 30.9897 30.2927 24.274 30.2927 15.9897Z" fill="#CCCCCC"/>
<path d="M22.0272 10.363C22.0272 10.363 20.6635 11.1812 20.209 10.9993C20.209 10.9993 19.2999 10.0902 18.0271 10.0902C16.7543 10.0902 15.1179 11.0903 15.1179 13.0903C15.1179 13.0903 15.1179 13.454 15.2089 13.6358C15.2089 13.6358 11.7542 13.9994 9.02687 10.6357C9.02687 10.6357 7.66319 12.8176 9.93598 14.454C9.93598 14.454 9.39051 14.7267 8.66322 14.1812C8.66322 14.1812 8.57231 16.3631 11.0269 17.0904C11.0269 17.0904 10.4815 17.3631 9.75416 17.1813C9.75416 17.1813 10.1178 19.0905 12.4815 19.1814C12.4815 19.1814 10.936 20.636 8.11775 20.4541C8.11775 20.4541 12.8452 24.0906 18.4817 19.545C18.4817 19.545 21.1181 17.2722 21.0272 12.9085C21.0272 12.9085 22.1181 12.1812 22.4818 11.4539C22.4818 11.4539 21.9363 11.9085 20.8454 11.8175C20.8454 11.9085 22.0272 11.0903 22.0272 10.363Z" fill="white"/>
</svg>
